# xmcd CD database file
#
# Track frame offsets:
#	150
#	28917
#	50065
#	75997
#	100040
#	123900
#	145695
#	173752
#
# Disc length: 2529 seconds
#
# Revision: 0
# Processed by: cddbd v1.5.1PL2 Copyright (c) Steve Scherf et al.
# Submitted via: CDex 1.51
#
DISCID=5e09df08
DTITLE=本多俊之 - Featuring The Super Quartet
DYEAR=1987
DGENRE=Jazz
TTITLE0=CAN`T TAKE AWAY ME
TTITLE1=THE SYNCHRONIZED QUARTET
TTITLE2=MODERATE
TTITLE3=NEW LIFE
TTITLE4=THEMY DEAR LITTLE DEVIL TRIBUTE OF A TEAR
TTITLE5=THE TRIBUTE OF A TEAR
TTITLE6=WOMAN`S TALK
TTITLE7=MORITAT
EXTD=YEAR: 1987
EXTT0=
EXTT1=
EXTT2=
EXTT3=
EXTT4=
EXTT5=
EXTT6=
EXTT7=
PLAYORDER=
